<svg width="19" height="24" viewBox="0 0 19 24" fill="none" xmlns="http://www.w3.org/2000/svg">
<g clip-path="url(#clip0_20708_19680)">
<path d="M15.9311 1.86808C14.9262 0.605932 13.1098 0.0648193 10.786 0.0648193H4.04179C3.81186 0.0647803 3.58947 0.155154 3.41461 0.319684C3.23976 0.484215 3.12391 0.712103 3.08792 0.962356L0.279748 20.5889C0.223931 20.9759 0.495878 21.3264 0.85184 21.3264H5.01549L6.06117 14.0174L6.02872 14.2463C6.10321 13.7296 6.50417 13.3486 6.97898 13.3486H8.95754C12.8444 13.3486 15.8879 11.6088 16.7769 6.57605C16.8033 6.4272 16.8262 6.28233 16.846 6.14079C16.7337 6.07531 16.7337 6.07531 16.846 6.14079C17.1107 4.28063 16.8441 3.01444 15.9311 1.86808Z" fill="#27346A"/>
<path d="M7.65434 5.4707C7.76814 5.41088 7.89266 5.37992 8.01874 5.3801H13.3061C13.9322 5.3801 14.5162 5.425 15.0498 5.51965C15.1992 5.54591 15.3477 5.57724 15.4953 5.61359C15.7045 5.66446 15.9112 5.72671 16.1148 5.8001C16.3771 5.89666 16.6215 6.00911 16.846 6.14079C17.1107 4.27992 16.8441 3.01444 15.9311 1.86808C14.9257 0.605932 13.1098 0.0648193 10.786 0.0648193H4.04121C3.56633 0.0648193 3.16234 0.445799 3.08792 0.962356L0.279749 20.5882C0.223931 20.9758 0.495878 21.3258 0.851263 21.3258H5.01549L7.18494 6.16527C7.20629 6.01626 7.26016 5.8752 7.34193 5.75421C7.42369 5.63322 7.53091 5.53593 7.65434 5.4707Z" fill="#27346A"/>
<path d="M16.7761 6.57613C15.887 11.6082 12.8436 13.3487 8.95667 13.3487H6.97753C6.50273 13.3487 6.10169 13.7297 6.02792 14.2464L4.72703 23.3342C4.67842 23.6729 4.91612 23.9798 5.22708 23.9798H8.73693C8.93799 23.9797 9.13243 23.9006 9.28528 23.7567C9.43814 23.6128 9.53938 23.4135 9.5708 23.1946L9.60498 22.9975L10.2665 18.3775L10.3091 18.1221C10.3405 17.9033 10.4418 17.704 10.5946 17.5601C10.7475 17.4161 10.9419 17.337 11.1429 17.3369H11.6682C15.0682 17.3369 17.7305 15.8148 18.5085 11.4124C18.8332 9.57271 18.6652 8.03671 17.8062 6.95782C17.5456 6.63104 17.222 6.36116 16.8451 6.14087C16.8247 6.28312 16.8025 6.42728 16.7761 6.57613Z" fill="#2790C3"/>
<path d="M15.9155 5.73198C15.7769 5.68738 15.637 5.64788 15.496 5.61357C15.3483 5.5778 15.1998 5.54669 15.0505 5.52027C14.5163 5.42499 13.9327 5.38001 13.306 5.38001H8.01932C7.89316 5.37977 7.76859 5.41099 7.65492 5.47132C7.53133 5.53631 7.42398 5.63354 7.34217 5.75456C7.26036 5.87559 7.20657 6.01678 7.18545 6.16589L6.06175 14.0174L6.0293 14.2463C6.10322 13.7296 6.50418 13.3486 6.97906 13.3486H8.95819C12.8451 13.3486 15.8885 11.6088 16.7775 6.57603C16.804 6.42719 16.8262 6.28295 16.8466 6.14077C16.6215 6.00991 16.3778 5.89656 16.1154 5.80072C16.0491 5.77653 15.9825 5.75361 15.9156 5.73198" fill="#1F264F"/>
</g>
<defs>
<clipPath id="clip0_20708_19680">
<rect width="18.4615" height="24" fill="white" transform="translate(0.269531)"/>
</clipPath>
</defs>
</svg>
